<svg width="14" height="14" viewBox="0 0 14 14" fill="none" xmlns="http://www.w3.org/2000/svg">
<path d="M12.2667 0.00119628H1.14167C0.998271 -0.00552216 0.854959 0.016107 0.719934 0.0648457C0.584909 0.113584 0.460822 0.188476 0.354777 0.285232C0.248732 0.381988 0.162812 0.49871 0.101934 0.628714C0.0410568 0.758719 0.00641762 0.899454 0 1.04286V12.1929C0.00840026 12.493 0.131379 12.7785 0.34369 12.9908C0.556 13.2031 0.841532 13.3261 1.14167 13.3345H12.2667C12.5584 13.3215 12.8335 13.1947 13.0329 12.9813C13.2323 12.7679 13.3402 12.4849 13.3333 12.1929V1.04286C13.3357 0.903283 13.3096 0.764687 13.2565 0.635573C13.2034 0.50646 13.1245 0.389551 13.0246 0.292016C12.9247 0.194481 12.806 0.118376 12.6757 0.0683671C12.5453 0.0183587 12.4061 -0.00449893 12.2667 0.00119628ZM4.16667 11.1179H2.225V5.1762H4.16667V11.1179ZM3.24167 4.2762C3.10617 4.28092 2.97117 4.25757 2.84513 4.20762C2.71909 4.15767 2.60474 4.08219 2.50927 3.98594C2.4138 3.88968 2.33926 3.77472 2.29034 3.64828C2.24142 3.52184 2.21917 3.38665 2.225 3.2512C2.21901 3.11428 2.2417 2.97763 2.29162 2.85C2.34155 2.72237 2.4176 2.60659 2.51489 2.51008C2.61219 2.41357 2.72858 2.33846 2.85661 2.28957C2.98464 2.24068 3.12147 2.2191 3.25833 2.2262C3.39383 2.22148 3.52883 2.24482 3.65487 2.29477C3.78091 2.34472 3.89525 2.4202 3.99073 2.51646C4.0862 2.61271 4.16074 2.72767 4.20966 2.85411C4.25858 2.98055 4.28083 3.11575 4.275 3.2512C4.28099 3.38811 4.2583 3.52476 4.20837 3.65239C4.15845 3.78002 4.0824 3.8958 3.98511 3.99231C3.88781 4.08883 3.77142 4.16394 3.64339 4.21282C3.51536 4.26171 3.37853 4.2833 3.24167 4.2762ZM11.1167 11.1179H9.16667V7.86786C9.16667 7.09286 8.89167 6.55953 8.2 6.55953C7.98513 6.5614 7.7761 6.62967 7.60155 6.75499C7.427 6.8803 7.29547 7.05654 7.225 7.25953C7.17012 7.41154 7.14742 7.57329 7.15833 7.73453V11.1179H5.24167V5.1762H7.15833V6.00953C7.32874 5.69648 7.58236 5.43662 7.89119 5.25868C8.20002 5.08073 8.55203 4.99162 8.90833 5.0012C10.1667 5.0012 11.1167 5.83453 11.1167 7.60953V11.1179Z" fill="white"/>
</svg>
