<svg width="14" height="14" viewBox="0 0 14 14" fill="none" xmlns="http://www.w3.org/2000/svg">
<path d="M2.87813 6.95625C2.87813 7.73438 3.09688 8.49375 3.50938 9.14688L3.60625 9.30313L3.19063 10.8219L4.75 10.4125L4.9 10.5031C5.53125 10.8781 6.25625 11.0781 6.99687 11.0781H7C9.26875 11.0781 11.1656 9.23125 11.1656 6.95938C11.1656 5.85938 10.6906 4.825 9.9125 4.04688C9.13125 3.26562 8.1 2.8375 7 2.8375C4.72813 2.8375 2.88125 4.68438 2.87813 6.95625ZM8.5875 9.3125C8.19375 9.37187 7.8875 9.34062 7.10312 9.00313C5.95312 8.50625 5.17188 7.39375 5.0125 7.16875C5 7.15 4.99063 7.14062 4.9875 7.13437C4.925 7.05312 4.48125 6.4625 4.48125 5.85312C4.48125 5.27812 4.7625 4.98125 4.89375 4.84375C4.90313 4.83437 4.90938 4.82812 4.91563 4.81875C5.02813 4.69375 5.1625 4.6625 5.24687 4.6625C5.32812 4.6625 5.4125 4.6625 5.48438 4.66563H5.50937C5.58125 4.66563 5.67188 4.66563 5.7625 4.87813C5.8 4.96875 5.85625 5.10625 5.91562 5.24687C6.01875 5.49687 6.125 5.75625 6.14375 5.79688C6.175 5.85938 6.19687 5.93125 6.15312 6.0125C6.04688 6.225 5.9375 6.3375 5.8625 6.41875C5.76562 6.51875 5.72187 6.56563 5.79062 6.6875C6.26875 7.50938 6.74688 7.79375 7.475 8.15938C7.6 8.22188 7.67187 8.2125 7.74375 8.12813C7.81562 8.04688 8.05312 7.76562 8.13437 7.64375C8.21562 7.51875 8.3 7.54063 8.4125 7.58125C8.525 7.62188 9.13437 7.92188 9.25937 7.98438C9.28437 7.99687 9.30625 8.00625 9.325 8.01562C9.4125 8.05937 9.47188 8.0875 9.49687 8.12813C9.525 8.1875 9.525 8.4375 9.42188 8.725C9.31875 9.01562 8.825 9.27812 8.5875 9.3125ZM14 2C14 0.896875 13.1031 0 12 0H2C0.896875 0 0 0.896875 0 2V12C0 13.1031 0.896875 14 2 14H12C13.1031 14 14 13.1031 14 12V2ZM4.62813 11.3094L2 12L2.70312 9.43125C2.26875 8.68125 2.04063 7.82812 2.04063 6.95312C2.04375 4.22188 4.26562 2 6.99687 2C8.32187 2 9.56563 2.51562 10.5031 3.45312C11.4375 4.39062 12 5.63438 12 6.95938C12 9.69063 9.72812 11.9125 6.99687 11.9125C6.16562 11.9125 5.35 11.7031 4.62813 11.3094Z" fill="white"/>
</svg>
